<svg width="141" height="140" viewBox="0 0 141 140" fill="none" xmlns="http://www.w3.org/2000/svg">
<path d="M75.0543 3.17693L75.9601 3.27826L75.9011 3.80551C75.8235 4.4995 75.6072 5.12779 75.2522 5.69037C74.9063 6.25397 74.4523 6.72334 73.8901 7.09849C73.328 7.47364 72.6919 7.73557 71.9817 7.88427L71.5392 6.94502C72.1642 6.8233 72.7262 6.6124 73.2252 6.31231C73.7252 6.00322 74.1281 5.62394 74.4339 5.17449C74.7487 4.72605 74.9358 4.23594 74.9953 3.70419L75.0543 3.17693ZM75.2436 3.19811L76.1629 3.30094L76.1039 3.82819C76.0495 4.31489 76.1187 4.79716 76.3116 5.27503C76.5146 5.74489 76.8222 6.17627 77.2346 6.56916C77.6479 6.95305 78.1419 7.26839 78.7166 7.51519L78.0911 8.33496C77.4393 8.04304 76.8797 7.66105 76.4124 7.18899C75.954 6.71794 75.6164 6.18739 75.3995 5.59734C75.1836 4.99828 75.112 4.37428 75.1846 3.72536L75.2436 3.19811ZM72.4019 2.29164L78.9318 3.02206L78.8304 3.92786L72.3006 3.19743L72.4019 2.29164ZM75.2857 1.10848L76.4078 1.234L76.2006 3.08614L75.0785 2.96063L75.2857 1.10848ZM80.5927 1.75688L81.7148 1.8824L80.9057 9.11522L79.7836 8.9897L80.5927 1.75688ZM81.0575 4.94353L83.1666 5.17945L83.0622 6.11228L80.9532 5.87636L81.0575 4.94353ZM73.1618 8.83758L80.8407 9.69655L80.3643 13.9551L72.6854 13.0962L73.1618 8.83758ZM79.6323 10.4648L74.157 9.85234L73.8833 12.2993L79.3586 12.9118L79.6323 10.4648Z" fill="#6ECFFF"/>
<path d="M94.3884 6.41811L95.2265 6.77619L94.8417 7.67689C94.5638 8.3274 94.1739 8.87086 93.6718 9.30727C93.1698 9.74369 92.5896 10.0629 91.9313 10.2649C91.2849 10.4621 90.5979 10.5236 89.8702 10.4494L89.7047 9.41716C90.355 9.48787 90.964 9.44729 91.5319 9.29541C92.1081 9.14709 92.6115 8.90359 93.0422 8.56491C93.4729 8.22623 93.7934 7.81086 94.0036 7.31881L94.3884 6.41811ZM94.576 6.49828L95.4267 6.8617L95.0472 7.7499C94.8584 8.19191 94.7934 8.66712 94.8524 9.17554C94.9149 9.67562 95.0887 10.169 95.3738 10.6557C95.659 11.1425 96.0453 11.5886 96.5329 11.9941L95.6976 12.5988C95.1421 12.1445 94.7069 11.6282 94.3919 11.0498C94.0887 10.4667 93.9142 9.85954 93.8682 9.22846C93.8306 8.60093 93.94 7.98694 94.1966 7.38647L94.576 6.49828ZM91.9737 5.07581L98.0284 7.66256L97.665 8.51322L91.6102 5.92647L91.9737 5.07581ZM99.7342 7.6517L100.773 8.09529L98.282 13.9248L97.2437 13.4812L99.7342 7.6517ZM99.2568 10.362L101.383 11.2705L101.02 12.1212L98.8934 11.2126L99.2568 10.362ZM90.8591 11.3896L98.0522 14.4628L96.8817 17.2024L90.7394 14.5782L89.9965 16.3171L88.9832 15.8842L90.0575 13.3697L96.1873 15.9885L96.679 14.8376L90.5117 12.2028L90.8591 11.3896ZM89.1757 15.4338L96.7315 18.6619L96.3841 19.4751L88.8283 16.247L89.1757 15.4338Z" fill="#6ECFFF"/>
<path d="M113.504 16.3141L114.374 16.945L109.901 23.112L109.031 22.481L113.504 16.3141ZM109.893 17.8631L111.777 19.2288L111.233 19.9777L109.35 18.612L109.893 17.8631ZM111.278 14.9348L112.137 15.5578L107.888 21.4164L107.029 20.7934L111.278 14.9348ZM105.113 11.9426L110.156 15.6004L109.621 16.3383L104.578 12.6804L105.113 11.9426ZM106.751 15.0129C107.17 15.3164 107.483 15.656 107.693 16.0318C107.914 16.4056 108.02 16.7848 108.01 17.1695C108.013 17.5523 107.889 17.9162 107.639 18.2612C107.394 18.5989 107.086 18.8297 106.716 18.9536C106.354 19.0827 105.958 19.1036 105.528 19.0162C105.111 18.9267 104.694 18.7302 104.275 18.4267C103.864 18.1286 103.548 17.7926 103.326 17.4189C103.109 17.0378 103.006 16.6548 103.016 16.2701C103.026 15.8854 103.154 15.5241 103.399 15.1864C103.649 14.8414 103.953 14.6079 104.31 14.4861C104.673 14.3569 105.066 14.3397 105.49 14.4345C105.92 14.5219 106.34 14.7147 106.751 15.0129ZM106.256 15.6957C105.874 15.4188 105.496 15.2843 105.12 15.2921C104.745 15.3 104.443 15.4617 104.214 15.7774C103.99 16.0858 103.93 16.4232 104.034 16.7898C104.143 17.1491 104.389 17.4671 104.77 17.744C105.16 18.0262 105.538 18.1607 105.906 18.1475C106.287 18.1323 106.589 17.9706 106.813 17.6622C107.042 17.3465 107.102 17.0091 106.992 16.6498C106.891 16.2959 106.645 15.9779 106.256 15.6957ZM107.985 12.3618L108.888 13.0167L107.778 14.5474L106.875 13.8926L107.985 12.3618ZM103.915 19.2244L104.631 19.7435L104.392 20.0739C104.088 20.4923 103.698 20.8369 103.222 21.1076C102.758 21.3762 102.243 21.546 101.676 21.6167C101.11 21.6875 100.52 21.6353 99.9077 21.4601L99.9813 20.4548C100.501 20.6188 100.998 20.6825 101.473 20.6459C101.96 20.6072 102.393 20.4896 102.771 20.2931C103.156 20.1018 103.457 19.8557 103.676 19.5547L103.915 19.2244ZM104.125 19.3761L104.807 19.8713L104.568 20.2016C104.339 20.5173 104.17 20.8819 104.06 21.2955C103.963 21.707 103.954 22.1371 104.032 22.5857C104.11 23.0344 104.287 23.4769 104.565 23.9132L103.687 24.3355C103.343 23.8058 103.137 23.264 103.068 22.71C103.001 22.1687 103.043 21.6392 103.195 21.1216C103.346 20.604 103.576 20.1323 103.885 19.7065L104.125 19.3761ZM107.571 21.8759L108.254 22.371L108.015 22.7014C107.743 23.0758 107.385 23.4154 106.94 23.72C106.495 24.0247 105.993 24.2377 105.434 24.3591C104.878 24.4932 104.295 24.4853 103.687 24.3355L103.805 23.3622C104.322 23.4681 104.807 23.4785 105.261 23.3932C105.722 23.3132 106.134 23.1633 106.495 22.9435C106.856 22.7236 107.135 22.4779 107.332 22.2063L107.571 21.8759ZM107.77 22.0196L108.474 22.5308L108.235 22.8611C108.001 23.1842 107.846 23.5594 107.771 23.9869C107.709 24.4124 107.741 24.8555 107.866 25.316C107.991 25.7766 108.212 26.222 108.527 26.6523L107.594 27.0347C107.232 26.5144 106.994 25.9776 106.88 25.4244C106.761 24.8784 106.759 24.3397 106.876 23.8081C106.993 23.2765 107.211 22.7905 107.53 22.35L107.77 22.0196Z" fill="#6ECFFF"/>
<path d="M119.628 23.362C120.024 23.8115 120.241 24.3266 120.281 24.9075C120.328 25.4824 120.193 26.0778 119.877 26.6938C119.567 27.3165 119.086 27.9153 118.432 28.4903C117.778 29.0653 117.123 29.4666 116.465 29.6944C115.814 29.9289 115.203 29.9893 114.632 29.8756C114.061 29.7618 113.578 29.4802 113.183 29.0308C112.793 28.5881 112.576 28.0729 112.53 27.4852C112.49 26.9043 112.625 26.3025 112.935 25.6798C113.251 25.0639 113.735 24.4684 114.389 23.8935C115.043 23.3185 115.695 22.9138 116.347 22.6792C117.004 22.4515 117.615 22.3975 118.179 22.5172C118.756 22.6377 119.239 22.9193 119.628 23.362ZM118.872 24.0268C118.615 23.734 118.285 23.565 117.883 23.52C117.488 23.4689 117.046 23.5434 116.558 23.7434C116.082 23.9442 115.596 24.2633 115.099 24.7005C114.602 25.1377 114.22 25.5823 113.953 26.0343C113.699 26.4871 113.569 26.9157 113.562 27.3201C113.556 27.7245 113.681 28.0731 113.939 28.366C114.202 28.6656 114.535 28.838 114.937 28.883C115.339 28.9281 115.777 28.8502 116.253 28.6494C116.741 28.4493 117.234 28.1307 117.731 27.6935C118.228 27.2563 118.604 26.8113 118.858 26.3585C119.125 25.9065 119.258 25.4813 119.258 25.0829C119.264 24.6785 119.136 24.3264 118.872 24.0268ZM124.126 27.0337L124.862 27.8713L115.607 36.0107L114.871 35.173L124.126 27.0337ZM118.598 27.8551L120.934 30.5111L120.249 31.113L117.914 28.4571L118.598 27.8551Z" fill="#6ECFFF"/>
<path d="M123.736 37.5821L124.27 38.5617L121.044 40.3185L120.511 39.3389L123.736 37.5821ZM125.91 41.5722L126.45 42.5638L123.224 44.3206L122.684 43.3291L125.91 41.5722ZM119.394 36.8336L124.73 46.6297L123.905 47.0787L118.57 37.2826L119.394 36.8336ZM129.969 37.3937C130.386 38.1583 130.639 38.8981 130.729 39.6133C130.819 40.3284 130.748 40.9661 130.516 41.5261C130.289 42.0942 129.892 42.5322 129.327 42.8402C128.769 43.1438 128.186 43.2394 127.577 43.1268C126.981 43.0179 126.407 42.7316 125.855 42.2681C125.311 41.8002 124.831 41.184 124.414 40.4194C124.002 39.6628 123.745 38.9251 123.642 38.2063C123.552 37.4911 123.623 36.8535 123.855 36.2934C124.095 35.729 124.494 35.295 125.051 34.9913C125.617 34.6833 126.198 34.5838 126.794 34.6927C127.391 34.8017 127.965 35.0879 128.517 35.5515C129.073 36.023 129.557 36.6371 129.969 37.3937ZM129.181 37.8231C128.868 37.2497 128.507 36.7855 128.097 36.4306C127.687 36.0757 127.261 35.8533 126.82 35.7632C126.386 35.6689 125.97 35.7302 125.572 35.9471C125.174 36.164 124.893 36.4822 124.729 36.9019C124.573 37.3173 124.533 37.7935 124.609 38.3306C124.684 38.8677 124.878 39.423 125.191 39.9964C125.507 40.5778 125.871 41.046 126.281 41.4009C126.691 41.7558 127.113 41.9804 127.546 42.0748C127.988 42.1648 128.408 42.1014 128.806 41.8845C129.204 41.6676 129.481 41.3514 129.637 40.9361C129.801 40.5164 129.845 40.038 129.769 39.5009C129.694 38.9638 129.497 38.4045 129.181 37.8231Z" fill="#6ECFFF"/>
<path d="M135.097 53.8695L135.283 54.7619L134.763 54.8699C134.079 55.0121 133.415 55.002 132.77 54.8397C132.127 54.6864 131.539 54.4009 131.008 53.9834C130.476 53.5659 130.03 53.0429 129.667 52.4142L130.422 51.7015C130.732 52.2576 131.108 52.7261 131.548 53.1069C131.997 53.4859 132.483 53.7507 133.006 53.9015C133.53 54.0611 134.054 54.0865 134.578 53.9775L135.097 53.8695ZM135.136 54.056L135.324 54.9617L134.805 55.0697C134.325 55.1694 133.888 55.3853 133.494 55.7173C133.111 56.0564 132.797 56.483 132.552 56.9971C132.315 57.5094 132.169 58.077 132.114 58.7L131.14 58.3606C131.215 57.6503 131.404 56.9997 131.707 56.4086C132.012 55.8264 132.411 55.3405 132.904 54.9508C133.406 54.5592 133.977 54.2969 134.616 54.164L135.136 54.056ZM135.113 51.0734L136.451 57.5063L135.558 57.6919L134.221 51.2589L135.113 51.0734ZM137.135 53.4458L137.365 54.5512L135.54 54.9307L135.31 53.8252L137.135 53.4458ZM138.17 58.6911L138.4 59.7965L131.274 61.2783L131.044 60.1728L138.17 58.6911ZM135.286 60.1245L135.718 62.2022L134.799 62.3933L134.367 60.3156L135.286 60.1245ZM129.128 53.8324L130.702 61.3974L126.506 62.2698L124.933 54.7048L129.128 53.8324ZM129.595 60.488L128.474 55.094L126.063 55.5953L127.185 60.9893L129.595 60.488Z" fill="#6ECFFF"/>
<path d="M138.04 73.3384L137.962 74.2466L136.986 74.163C136.282 74.1026 135.643 73.9023 135.072 73.562C134.5 73.2218 134.015 72.7707 133.618 72.2087C133.228 71.6564 132.955 71.0232 132.797 70.3088L133.726 69.8286C133.862 70.4683 134.091 71.0341 134.413 71.5259C134.735 72.0267 135.123 72.4287 135.58 72.7317C136.036 73.0348 136.531 73.2092 137.064 73.2548L138.04 73.3384ZM138.023 73.5417L137.944 74.4634L136.981 74.381C136.502 74.34 136.031 74.427 135.566 74.6421C135.111 74.8579 134.697 75.1774 134.324 75.6006C133.951 76.0237 133.648 76.5303 133.415 77.1202L132.58 76.5161C132.837 75.8464 133.191 75.2715 133.642 74.7912C134.101 74.3208 134.623 73.9651 135.208 73.7239C135.792 73.4918 136.41 73.4036 137.06 73.4593L138.023 73.5417ZM138.559 70.6249L137.997 77.185L137.076 77.1061L137.638 70.546L138.559 70.6249ZM138.541 78.8018L138.445 79.9268L132.129 79.3857L132.225 78.2607L138.541 78.8018ZM135.818 79.1965L135.621 81.5007L134.699 81.4218L134.896 79.1176L135.818 79.1965ZM132.214 71.5423L131.546 79.3358L128.578 79.0815L129.148 72.4265L127.264 72.2651L127.358 71.1673L130.082 71.4006L129.513 78.0421L130.76 78.1489L131.333 71.4668L132.214 71.5423ZM127.846 71.2091L127.145 79.3956L126.264 79.3202L126.965 71.1336L127.846 71.2091Z" fill="#6ECFFF"/>
<path d="M134.632 94.57L134.305 95.5937L127.048 93.275L127.375 92.2513L134.632 94.57ZM132.031 91.6253L131.323 93.8412L130.442 93.5597L131.15 91.3438L132.031 91.6253ZM135.245 92.0241L134.922 93.0348L128.029 90.8321L128.352 89.8213L135.245 92.0241ZM136.159 85.2324L134.262 91.1673L133.394 90.8899L135.291 84.955L136.159 85.2324ZM133.755 87.7491C133.598 88.2415 133.373 88.6458 133.082 88.9621C132.796 89.2898 132.469 89.5089 132.101 89.6197C131.738 89.7418 131.354 89.738 130.947 89.6082C130.55 89.4813 130.235 89.2615 130.001 88.9489C129.765 88.645 129.622 88.2753 129.57 87.84C129.525 87.4161 129.581 86.958 129.738 86.4655C129.893 85.9818 130.113 85.5761 130.398 85.2484C130.693 84.9235 131.024 84.7057 131.393 84.595C131.761 84.4842 132.144 84.4924 132.542 84.6193C132.948 84.7491 133.264 84.9645 133.492 85.2657C133.728 85.5697 133.867 85.9379 133.91 86.3705C133.961 86.8058 133.91 87.2653 133.755 87.7491ZM132.952 87.4924C133.095 87.0432 133.105 86.6415 132.98 86.2874C132.855 85.9333 132.607 85.6969 132.235 85.5782C131.872 85.4623 131.533 85.511 131.217 85.7243C130.91 85.9404 130.685 86.273 130.541 86.7223C130.395 87.1801 130.386 87.5818 130.513 87.9272C130.647 88.2841 130.895 88.5205 131.258 88.6364C131.629 88.7551 131.969 88.7064 132.276 88.4903C132.58 88.2829 132.805 87.9502 132.952 87.4924ZM136.659 88.0914L136.32 89.154L134.518 88.5785L134.858 87.5159L136.659 88.0914ZM128.868 86.3732L128.599 87.2154L128.21 87.0912C127.718 86.9339 127.268 86.6713 126.862 86.3035C126.462 85.9472 126.14 85.5109 125.895 84.9948C125.651 84.4788 125.516 83.9025 125.491 83.2661L126.468 83.0216C126.475 83.5665 126.57 84.0586 126.754 84.498C126.943 84.9488 127.19 85.3229 127.495 85.6202C127.797 85.9262 128.125 86.1358 128.479 86.2489L128.868 86.3732ZM128.789 86.6194L128.532 87.4228L128.144 87.2986C127.772 87.1799 127.373 87.1332 126.946 87.1586C126.525 87.1954 126.113 87.321 125.712 87.5354C125.31 87.7498 124.945 88.0569 124.618 88.4568L123.942 87.7554C124.337 87.2629 124.787 86.8973 125.292 86.6587C125.785 86.426 126.301 86.3005 126.84 86.2823C127.379 86.2641 127.899 86.3351 128.4 86.4952L128.789 86.6194ZM127.493 90.6753L127.237 91.4787L126.848 91.3545C126.407 91.2137 125.973 90.9796 125.544 90.6523C125.116 90.3249 124.756 89.915 124.466 89.4224C124.165 88.9357 123.99 88.3801 123.942 87.7554L124.903 87.5627C124.964 88.0868 125.106 88.5511 125.329 88.9556C125.55 89.3687 125.821 89.7124 126.142 89.9866C126.464 90.2608 126.785 90.4489 127.105 90.5511L127.493 90.6753ZM127.419 90.9085L127.154 91.7378L126.765 91.6136C126.385 91.4922 125.98 91.4628 125.551 91.5255C125.127 91.5997 124.716 91.7683 124.318 92.0314C123.92 92.2945 123.566 92.6431 123.255 93.0772L122.601 92.3109C122.981 91.8043 123.417 91.4102 123.907 91.1288C124.388 90.8445 124.899 90.6747 125.44 90.6192C125.982 90.5636 126.512 90.6187 127.03 90.7843L127.419 90.9085Z" fill="#6ECFFF"/>
<path d="M129.836 102.601C129.531 103.116 129.109 103.483 128.57 103.702C128.038 103.925 127.43 103.982 126.746 103.873C126.058 103.772 125.339 103.5 124.59 103.057C123.84 102.615 123.255 102.116 122.834 101.563C122.409 101.017 122.161 100.454 122.092 99.8763C122.023 99.2982 122.14 98.7515 122.444 98.2361C122.744 97.7285 123.166 97.3616 123.711 97.1353C124.25 96.9169 124.864 96.8582 125.552 96.9592C126.236 97.0679 126.953 97.3437 127.702 97.7864C128.452 98.2291 129.04 98.7235 129.465 99.2695C129.886 99.8234 130.127 100.387 130.188 100.961C130.253 101.547 130.135 102.093 129.836 102.601ZM128.969 102.089C129.167 101.753 129.225 101.387 129.143 100.991C129.069 100.6 128.861 100.203 128.519 99.8011C128.18 99.4115 127.726 99.0484 127.156 98.7117C126.586 98.3751 126.045 98.1502 125.532 98.0372C125.023 97.9365 124.575 97.9459 124.188 98.0652C123.802 98.1846 123.51 98.4122 123.311 98.7479C123.108 99.0915 123.048 99.4614 123.13 99.8574C123.212 100.253 123.423 100.646 123.761 101.036C124.103 101.438 124.559 101.807 125.129 102.144C125.699 102.48 126.239 102.699 126.748 102.8C127.261 102.913 127.706 102.907 128.085 102.783C128.471 102.664 128.766 102.433 128.969 102.089ZM127.744 108.017L127.176 108.977L116.564 102.71L117.131 101.749L127.744 108.017ZM125.245 103.018L123.446 106.063L122.662 105.6L124.46 102.554L125.245 103.018Z" fill="#6ECFFF"/>
<path d="M117.595 110.923L116.83 111.734L114.157 109.215L114.922 108.403L117.595 110.923ZM114.479 114.229L113.704 115.051L111.031 112.532L111.806 111.71L114.479 114.229ZM116.956 106.563L109.305 114.681L108.622 114.037L116.273 105.919L116.956 106.563ZM119.712 116.788C119.115 117.421 118.491 117.892 117.839 118.2C117.187 118.508 116.559 118.639 115.955 118.593C115.344 118.553 114.805 118.313 114.336 117.871C113.874 117.436 113.602 116.911 113.52 116.298C113.438 115.697 113.531 115.062 113.8 114.394C114.076 113.731 114.512 113.083 115.109 112.449C115.7 111.822 116.321 111.348 116.972 111.028C117.624 110.72 118.252 110.589 118.857 110.635C119.468 110.688 120.004 110.931 120.466 111.367C120.935 111.809 121.21 112.33 121.292 112.93C121.374 113.531 121.28 114.166 121.011 114.834C120.736 115.51 120.303 116.161 119.712 116.788ZM119.059 116.172C119.507 115.697 119.836 115.209 120.045 114.709C120.255 114.209 120.334 113.735 120.282 113.287C120.237 112.846 120.05 112.47 119.72 112.159C119.39 111.848 119 111.68 118.55 111.655C118.107 111.636 117.642 111.746 117.155 111.985C116.668 112.224 116.2 112.581 115.753 113.056C115.298 113.538 114.967 114.029 114.757 114.529C114.547 115.029 114.465 115.5 114.51 115.941C114.562 116.389 114.753 116.768 115.083 117.079C115.413 117.39 115.799 117.555 116.242 117.574C116.692 117.599 117.161 117.492 117.648 117.253C118.134 117.014 118.605 116.654 119.059 116.172Z" fill="#6ECFFF"/>
<path d="M105.718 126.764L104.93 127.221L104.664 126.762C104.314 126.158 104.115 125.524 104.066 124.86C104.009 124.201 104.096 123.554 104.325 122.918C104.554 122.283 104.91 121.694 105.393 121.152L106.307 121.645C105.877 122.114 105.55 122.618 105.327 123.156C105.108 123.701 105.01 124.246 105.031 124.789C105.044 125.337 105.185 125.842 105.453 126.305L105.718 126.764ZM105.554 126.86L104.753 127.323L104.487 126.864C104.242 126.44 103.9 126.094 103.46 125.824C103.018 125.567 102.514 125.402 101.949 125.331C101.389 125.268 100.804 125.308 100.195 125.451L100.211 124.42C100.909 124.267 101.586 124.242 102.242 124.344C102.891 124.451 103.478 124.677 104.003 125.023C104.532 125.376 104.961 125.836 105.288 126.401L105.554 126.86ZM108.378 125.901L102.692 129.193L102.235 128.404L107.921 125.112L108.378 125.901ZM106.761 128.566L105.784 129.131L104.85 127.519L105.827 126.953L106.761 128.566ZM102.107 131.197L101.13 131.763L97.4836 125.465L98.4607 124.899L102.107 131.197ZM99.84 128.91L98.0035 129.974L97.5332 129.161L99.3697 128.098L99.84 128.91ZM103.877 121.087L97.1905 124.958L95.0434 121.25L101.73 117.378L103.877 121.087ZM97.706 123.622L102.474 120.862L101.24 118.731L96.4723 121.492L97.706 123.622Z" fill="#6ECFFF"/>
<path d="M88.1837 135.66L87.2965 135.869L87.0718 134.916C86.9095 134.227 86.9009 133.558 87.046 132.909C87.1912 132.26 87.4687 131.659 87.8787 131.105C88.282 130.563 88.7985 130.106 89.4283 129.734L90.174 130.466C89.6086 130.795 89.1425 131.189 88.7755 131.649C88.3998 132.11 88.139 132.605 87.9933 133.133C87.8476 133.661 87.8361 134.186 87.9589 134.706L88.1837 135.66ZM87.985 135.707L87.0847 135.919L86.8631 134.979C86.7528 134.511 86.5231 134.09 86.174 133.716C85.8269 133.35 85.3942 133.056 84.8759 132.834C84.3575 132.611 83.7818 132.481 83.1488 132.444L83.4623 131.462C84.1789 131.498 84.8357 131.655 85.4324 131.934C86.0225 132.223 86.5232 132.608 86.9347 133.089C87.3374 133.572 87.6136 134.131 87.7634 134.766L87.985 135.707ZM90.9238 135.307L84.5153 136.818L84.3031 135.918L90.7116 134.407L90.9238 135.307ZM83.1487 137.839L82.0497 138.098L80.5952 131.928L81.6942 131.669L83.1487 137.839ZM81.9248 135.374L79.6738 135.905L79.4616 135.004L81.7125 134.474L81.9248 135.374ZM88.0744 129.564L80.461 131.359L79.7774 128.459L86.2786 126.926L85.8448 125.086L86.9172 124.833L87.5446 127.494L81.0567 129.024L81.3439 130.242L87.8715 128.703L88.0744 129.564ZM87.0296 125.31L79.0322 127.195L78.8294 126.334L86.8267 124.449L87.0296 125.31Z" fill="#6ECFFF"/>
<path d="M66.9296 139.043L65.855 139.052L65.7887 131.435L66.8634 131.425L66.9296 139.043ZM68.9136 135.652L66.5874 135.672L66.5794 134.747L68.9055 134.727L68.9136 135.652ZM69.5398 138.83L68.4787 138.839L68.4158 131.602L69.4768 131.593L69.5398 138.83ZM76.2765 137.574L70.0463 137.628L70.0384 136.717L76.2686 136.663L76.2765 137.574ZM73.1345 136.078C72.6176 136.082 72.1634 135.996 71.7719 135.818C71.3713 135.649 71.0609 135.407 70.8405 135.091C70.6111 134.785 70.4945 134.418 70.4908 133.992C70.4872 133.575 70.5973 133.207 70.8213 132.887C71.0362 132.568 71.3424 132.316 71.7398 132.131C72.1283 131.955 72.5809 131.865 73.0979 131.861C73.6057 131.856 74.0599 131.939 74.4604 132.108C74.861 132.285 75.1715 132.532 75.3919 132.848C75.6123 133.163 75.7244 133.529 75.728 133.947C75.7317 134.373 75.6261 134.741 75.4111 135.051C75.1962 135.371 74.89 135.618 74.4925 135.794C74.095 135.979 73.6424 136.073 73.1345 136.078ZM73.1272 135.234C73.5988 135.23 73.9832 135.114 74.2805 134.884C74.5778 134.655 74.7248 134.345 74.7214 133.955C74.7181 133.575 74.5657 133.267 74.2644 133.034C73.9632 132.81 73.5768 132.7 73.1052 132.704C72.6246 132.708 72.2401 132.825 71.9519 133.054C71.6547 133.293 71.5077 133.602 71.511 133.983C71.5144 134.373 71.6667 134.68 71.968 134.904C72.2602 135.129 72.6466 135.239 73.1272 135.234ZM73.7172 138.943L72.6018 138.953L72.5853 137.062L73.7008 137.052L73.7172 138.943ZM72.9136 131.005L72.0294 131.013L72.0258 130.605C72.0213 130.088 72.1303 129.579 72.3526 129.079C72.566 128.587 72.8796 128.144 73.2934 127.751C73.7072 127.357 74.2124 127.049 74.809 126.826L75.347 127.678C74.8316 127.855 74.3938 128.099 74.0338 128.411C73.6647 128.732 73.3866 129.083 73.1995 129.466C73.0033 129.848 72.9068 130.226 72.91 130.597L72.9136 131.005ZM72.6551 131.008L71.8117 131.015L71.8082 130.607C71.8048 130.217 71.7243 129.823 71.5666 129.425C71.4 129.037 71.1521 128.685 70.8228 128.371C70.4936 128.056 70.0878 127.806 69.6055 127.62L70.0606 126.759C70.652 126.98 71.14 127.293 71.5244 127.698C71.8997 128.094 72.1802 128.545 72.366 129.051C72.5518 129.557 72.647 130.074 72.6516 130.6L72.6551 131.008ZM68.3973 131.045L67.554 131.052L67.5504 130.644C67.5464 130.181 67.6329 129.695 67.8098 129.186C67.9868 128.677 68.2638 128.207 68.641 127.778C69.009 127.339 69.4822 126.999 70.0606 126.759L70.5441 127.611C70.0654 127.833 69.6688 128.113 69.3543 128.452C69.0307 128.79 68.789 129.155 68.6292 129.546C68.4693 129.938 68.3909 130.301 68.3938 130.637L68.3973 131.045ZM68.1525 131.047L67.2819 131.054L67.2783 130.646C67.2749 130.247 67.1762 129.854 66.9824 129.465C66.7796 129.086 66.4909 128.749 66.1165 128.453C65.7421 128.157 65.3003 127.929 64.791 127.77L65.3141 126.909C65.9144 127.112 66.4248 127.402 66.8453 127.78C67.2657 128.148 67.5869 128.58 67.8089 129.077C68.0309 129.574 68.1442 130.095 68.1489 130.639L68.1525 131.047Z" fill="#6ECFFF"/>
<path d="M57.7831 137.014C57.1982 136.887 56.7173 136.601 56.3403 136.157C55.9615 135.722 55.7163 135.163 55.6048 134.48C55.4844 133.795 55.5166 133.027 55.7013 132.177C55.886 131.326 56.1752 130.614 56.5689 130.04C56.9537 129.465 57.4096 129.053 57.9366 128.806C58.4637 128.558 59.0196 128.498 59.6046 128.625C60.1806 128.75 60.6616 129.036 61.0474 129.481C61.4243 129.925 61.673 130.49 61.7933 131.175C61.9049 131.858 61.8683 132.625 61.6835 133.475C61.4988 134.326 61.214 135.039 60.8292 135.615C60.4356 136.188 59.9762 136.594 59.4511 136.833C58.9152 137.078 58.3592 137.139 57.7831 137.014ZM57.9967 136.03C58.3778 136.113 58.7435 136.053 59.0937 135.85C59.4419 135.657 59.7532 135.335 60.0274 134.884C60.2909 134.44 60.4928 133.894 60.6333 133.247C60.7738 132.6 60.8172 132.016 60.7635 131.494C60.699 130.979 60.5494 130.556 60.3147 130.227C60.08 129.898 59.7721 129.692 59.391 129.609C59.001 129.524 58.6309 129.583 58.2807 129.785C57.9305 129.988 57.6237 130.311 57.3603 130.755C57.0861 131.206 56.8787 131.755 56.7382 132.402C56.5977 133.049 56.5597 133.63 56.6242 134.145C56.6779 134.667 56.8231 135.088 57.0597 135.409C57.2944 135.738 57.6068 135.945 57.9967 136.03ZM51.9844 136.729L50.8943 136.492L53.5095 124.448L54.5996 124.685L51.9844 136.729ZM55.9448 132.786L52.4884 132.036L52.6818 131.145L56.1382 131.896L55.9448 132.786Z" fill="#6ECFFF"/>
<path d="M46.0093 127.988L44.9995 127.514L46.56 124.189L47.5698 124.663L46.0093 127.988ZM41.8962 126.057L40.874 125.578L42.4345 122.253L43.4567 122.732L41.8962 126.057ZM49.9526 126.022L39.8545 121.282L40.2533 120.433L50.3514 125.172L49.9526 126.022ZM41.0963 131.828C40.3081 131.458 39.6662 131.012 39.1704 130.488C38.6746 129.965 38.3545 129.409 38.21 128.821C38.0573 128.228 38.1178 127.64 38.3914 127.057C38.6611 126.483 39.0746 126.061 39.6318 125.791C40.177 125.526 40.8092 125.417 41.5285 125.464C42.2439 125.519 42.9957 125.732 43.7838 126.102C44.5637 126.468 45.2076 126.91 45.7155 127.429C46.2113 127.952 46.5314 128.508 46.6759 129.097C46.8165 129.694 46.7519 130.28 46.4822 130.855C46.2086 131.437 45.7992 131.861 45.2541 132.127C44.7089 132.392 44.0767 132.501 43.3574 132.454C42.6299 132.403 41.8762 132.194 41.0963 131.828ZM41.4777 131.015C42.0688 131.293 42.6347 131.453 43.1754 131.497C43.7161 131.54 44.191 131.467 44.6001 131.279C45.0054 131.098 45.3043 130.803 45.497 130.392C45.6897 129.982 45.7278 129.559 45.6115 129.124C45.4914 128.696 45.2419 128.289 44.863 127.901C44.4842 127.512 43.9992 127.18 43.4081 126.902C42.8088 126.621 42.2388 126.459 41.6981 126.415C41.1575 126.372 40.6845 126.44 40.2792 126.621C39.8701 126.81 39.5692 127.109 39.3766 127.52C39.1839 127.93 39.1476 128.349 39.2678 128.776C39.3841 129.211 39.6317 129.623 40.0105 130.011C40.3893 130.399 40.8784 130.734 41.4777 131.015Z" fill="#6ECFFF"/>
<path d="M27.2472 121.619L26.568 121.011L26.9217 120.616C27.3874 120.096 27.9279 119.709 28.5433 119.457C29.152 119.198 29.794 119.079 30.4695 119.099C31.1451 119.119 31.8152 119.275 32.4801 119.566L32.2959 120.587C31.7161 120.324 31.136 120.17 30.5554 120.125C29.9688 120.087 29.4207 120.163 28.9109 120.351C28.3944 120.534 27.9578 120.825 27.601 121.224L27.2472 121.619ZM27.1053 121.492L26.4159 120.875L26.7697 120.48C27.0962 120.115 27.3195 119.682 27.4394 119.181C27.5464 118.68 27.5459 118.15 27.4378 117.591C27.3236 117.039 27.104 116.495 26.7789 115.961L27.7639 115.656C28.1256 116.272 28.36 116.907 28.4671 117.563C28.5674 118.212 28.5348 118.841 28.3694 119.447C28.1979 120.06 27.8945 120.61 27.459 121.097L27.1053 121.492ZM28.8948 123.878L23.9983 119.497L24.6061 118.818L29.5026 123.199L28.8948 123.878ZM25.8593 123.17L25.0179 122.417L26.2606 121.028L27.1021 121.781L25.8593 123.17ZM21.9115 119.565L21.0701 118.812L25.9231 113.388L26.7645 114.141L21.9115 119.565ZM23.3805 116.699L21.799 115.284L22.4249 114.584L24.0064 115.999L23.3805 116.699ZM32.0714 118.105L26.3132 112.952L29.1706 109.759L34.9288 114.911L32.0714 118.105ZM27.7432 113.027L31.8489 116.701L33.4908 114.866L29.385 111.192L27.7432 113.027Z" fill="#6ECFFF"/>
<path d="M13.3559 107.771L12.8789 106.994L13.7135 106.481C14.3163 106.111 14.9486 105.893 15.6106 105.827C16.2725 105.761 16.9304 105.836 17.5844 106.052C18.2259 106.264 18.8221 106.611 19.373 107.092L18.9115 108.03C18.4217 107.597 17.9012 107.278 17.35 107.074C16.7941 106.862 16.2425 106.769 15.6953 106.797C15.1481 106.824 14.6465 106.978 14.1906 107.258L13.3559 107.771ZM13.2492 107.597L12.765 106.809L13.588 106.303C13.9976 106.052 14.3253 105.701 14.571 105.252C14.8091 104.808 14.9524 104.305 15.001 103.743C15.0496 103.181 14.9922 102.594 14.8287 101.981L15.8598 101.97C16.0506 102.662 16.1073 103.335 16.0301 103.989C15.9404 104.64 15.732 105.236 15.4047 105.778C15.0728 106.312 14.6286 106.75 14.0722 107.091L13.2492 107.597ZM14.5507 110.262L11.1048 104.651L11.893 104.167L15.3389 109.778L14.5507 110.262ZM9.70641 103.674L9.11548 102.712L14.5172 99.3945L15.1082 100.357L9.70641 103.674ZM11.6625 101.739L10.4521 99.768L11.2404 99.2838L12.4507 101.254L11.6625 101.739ZM19.1095 105.754L15.0157 99.0883L17.5542 97.5291L21.05 103.221L22.6613 102.231L23.238 103.17L20.908 104.601L17.4194 98.921L16.3529 99.5761L19.863 105.291L19.1095 105.754ZM22.8207 103.426L18.5204 96.4248L19.2738 95.9621L23.5741 102.963L22.8207 103.426Z" fill="#6ECFFF"/>
<path d="M3.48247 88.6617L3.1375 87.6439L10.3524 85.1986L10.6973 86.2164L3.48247 88.6617ZM7.3239 89.4856L6.5772 87.2825L7.45329 86.9856L8.19999 89.1887L7.3239 89.4856ZM4.50124 91.0743L4.16064 90.0694L11.0148 87.7463L11.3554 88.7512L4.50124 91.0743ZM7.80087 97.0803L5.80094 91.1796L6.66415 90.887L8.66408 96.7878L7.80087 97.0803ZM8.23951 93.628C8.07358 93.1384 8.01392 92.6799 8.06052 92.2523C8.09563 91.8191 8.22856 91.4485 8.45931 91.1404C8.67856 90.8267 8.99004 90.6015 9.39373 90.4646C9.78883 90.3307 10.1731 90.3202 10.5465 90.433C10.917 90.5373 11.2521 90.7492 11.552 91.0689C11.8404 91.383 12.0675 91.7848 12.2335 92.2744C12.3965 92.7553 12.4604 93.2125 12.4253 93.6457C12.3816 94.0818 12.2444 94.4539 12.0137 94.762C11.7829 95.07 11.47 95.291 11.0749 95.4249C10.6712 95.5617 10.2884 95.5765 9.92651 95.4694C9.55602 95.3651 9.22514 95.1517 8.93386 94.8291C8.63398 94.5094 8.40254 94.109 8.23951 93.628ZM9.03831 93.3573C9.18968 93.8039 9.42077 94.1326 9.73156 94.3432C10.0424 94.5539 10.3824 94.5966 10.7518 94.4715C11.1125 94.3492 11.3565 94.1085 11.4838 93.7494C11.6024 93.3932 11.5861 92.9917 11.4347 92.5451C11.2804 92.0899 11.0493 91.7612 10.7414 91.5591C10.422 91.3514 10.082 91.3086 9.72122 91.4309C9.35189 91.5561 9.10789 91.7968 8.98923 92.153C8.86766 92.5006 8.88402 92.9021 9.03831 93.3573ZM5.70008 95.0776L5.34202 94.0212L7.13285 93.4142L7.49092 94.4707L5.70008 95.0776ZM12.9884 91.8318L12.7045 90.9943L13.0911 90.8633C13.5806 90.6974 14.098 90.6417 14.6432 90.6964C15.1769 90.7453 15.6953 90.9047 16.1986 91.1746C16.7018 91.4446 17.1526 91.828 17.5509 92.3251L16.9095 93.1026C16.5804 92.6683 16.2116 92.3289 15.8031 92.0843C15.3831 91.8341 14.9622 91.6799 14.5403 91.6218C14.1155 91.5551 13.727 91.5814 13.3749 91.7008L12.9884 91.8318ZM12.9054 91.587L12.6347 90.7882L13.0212 90.6572C13.3905 90.532 13.7394 90.3324 14.0678 90.0583C14.3848 89.7785 14.6411 89.433 14.837 89.0219C15.0328 88.6108 15.1437 88.1471 15.1698 87.6308L16.13 87.7937C16.1045 88.4248 15.9596 88.9862 15.6953 89.4779C15.4368 89.9582 15.0961 90.3657 14.6733 90.7005C14.2506 91.0353 13.7901 91.2871 13.2919 91.456L12.9054 91.587ZM11.5386 87.5544L11.2679 86.7556L11.6544 86.6246C12.0925 86.4761 12.5811 86.4063 13.1203 86.415C13.6595 86.4238 14.1921 86.5401 14.7181 86.764C15.2497 86.9765 15.7203 87.3197 16.13 87.7937L15.4711 88.5197C15.1107 88.1344 14.7206 87.8452 14.3009 87.6523C13.8784 87.4508 13.4562 87.3354 13.0345 87.3059C12.6127 87.2765 12.243 87.3157 11.9252 87.4234L11.5386 87.5544ZM11.46 87.3225L11.1806 86.4979L11.5671 86.3669C11.945 86.2388 12.2881 86.022 12.5963 85.7164C12.893 85.4052 13.1234 85.0255 13.2875 84.5773C13.4515 84.1291 13.5294 83.6382 13.521 83.1049L14.5029 83.3322C14.4975 83.9661 14.3814 84.5417 14.1546 85.059C13.9363 85.5735 13.6259 86.0138 13.2234 86.3801C12.8208 86.7463 12.3619 87.0168 11.8466 87.1915L11.46 87.3225Z" fill="#6ECFFF"/>
<path d="M2.57183 79.361C2.51041 78.7656 2.63188 78.2197 2.93624 77.7234C3.23159 77.2279 3.68648 76.8209 4.30093 76.5022C4.91444 76.1745 5.65422 75.966 6.52025 75.8766C7.38629 75.7873 8.15305 75.8404 8.82054 76.0359C9.48711 76.2225 10.02 76.5276 10.4193 76.9514C10.8186 77.3752 11.049 77.8848 11.1104 78.4802C11.1709 79.0665 11.0494 79.6124 10.746 80.1178C10.4416 80.6142 9.98268 81.0262 9.36916 81.3539C8.75471 81.6726 8.01447 81.8766 7.14844 81.966C6.28241 82.0553 5.51611 82.0067 4.84954 81.8202C4.18205 81.6246 3.65317 81.3145 3.2629 80.8898C2.86268 80.457 2.63233 79.9474 2.57183 79.361ZM3.57319 79.2577C3.6132 79.6456 3.78389 79.9745 4.08523 80.2443C4.37756 80.515 4.78065 80.7104 5.29449 80.8307C5.79839 80.9428 6.37961 80.9649 7.03816 80.8969C7.69671 80.829 8.26569 80.6882 8.7451 80.4747C9.21456 80.253 9.56925 79.9794 9.80918 79.6538C10.0491 79.3281 10.1491 78.9714 10.109 78.5835C10.0681 78.1865 9.89694 77.8532 9.5956 77.5834C9.29425 77.3136 8.89163 77.1227 8.38773 77.0105C7.87388 76.8903 7.28769 76.8642 6.62914 76.9321C5.97059 77.0001 5.40659 77.1449 4.93713 77.3665C4.45771 77.5801 4.10255 77.8492 3.87165 78.1739C3.63173 78.4995 3.53224 78.8608 3.57319 79.2577ZM1.03691 73.7619L0.922436 72.6523L13.1822 71.3875L13.2967 72.4971L1.03691 73.7619ZM6.01667 76.2978L5.65372 72.7796L6.56035 72.686L6.9233 76.2043L6.01667 76.2978Z" fill="#6ECFFF"/>
<path d="M7.47347 65.2729L7.607 64.1654L11.2536 64.6051L11.12 65.7125L7.47347 65.2729ZM8.01735 60.7619L8.15251 59.6409L11.7991 60.0806L11.6639 61.2016L8.01735 60.7619ZM10.5766 68.4011L11.9119 57.3264L12.8438 57.4388L11.5085 68.5135L10.5766 68.4011ZM2.28668 61.8111C2.3909 60.9468 2.61373 60.1972 2.95517 59.5624C3.29662 58.9276 3.72424 58.4493 4.23804 58.1276C4.75292 57.7969 5.33 57.6701 5.96927 57.7472C6.59954 57.8232 7.12994 58.0835 7.56046 58.5282C7.98307 58.9628 8.28476 59.529 8.46554 60.2268C8.63731 60.9235 8.67109 61.704 8.56687 62.5684C8.46374 63.4237 8.24541 64.1739 7.91188 64.8187C7.57043 65.4535 7.14281 65.9318 6.62902 66.2535C6.10622 66.5741 5.52968 66.6965 4.89941 66.6205C4.26014 66.5434 3.7292 66.2875 3.30659 65.8529C2.88399 65.4183 2.5823 64.8521 2.40152 64.1544C2.22183 63.4476 2.18355 62.6665 2.28668 61.8111ZM3.17806 61.9186C3.0999 62.5669 3.12496 63.1545 3.25325 63.6816C3.38153 64.2086 3.59938 64.6368 3.90679 64.9661C4.20519 65.2944 4.57949 65.4857 5.02968 65.54C5.47988 65.5943 5.89342 65.498 6.2703 65.2511C6.63818 65.0032 6.94706 64.6385 7.19694 64.1571C7.44681 63.6756 7.61083 63.1108 7.68899 62.4625C7.76824 61.8052 7.74372 61.2131 7.61544 60.6861C7.48715 60.1591 7.2738 59.7314 6.9754 59.4031C6.66799 59.0737 6.28919 58.8819 5.839 58.8276C5.38881 58.7733 4.97977 58.8702 4.61189 59.1181C4.235 59.365 3.92162 59.7292 3.67175 60.2106C3.42187 60.692 3.25731 61.2613 3.17806 61.9186Z" fill="#6ECFFF"/>
<path d="M7.63708 45.4835L8.00248 44.6485L8.48852 44.8612C9.12826 45.1411 9.66414 45.534 10.0961 46.0399C10.5318 46.5374 10.8454 47.1102 11.0369 47.7583C11.2285 48.4064 11.29 49.0916 11.2214 49.8139L10.1932 49.9579C10.2623 49.3249 10.2275 48.7257 10.0889 48.1601C9.94203 47.591 9.69931 47.0937 9.36077 46.6684C9.02586 46.2348 8.61331 45.9107 8.12312 45.6962L7.63708 45.4835ZM7.71343 45.309L8.08428 44.4615L8.57032 44.6742C9.01897 44.8706 9.50009 44.9475 10.0137 44.9049C10.5226 44.8505 11.0258 44.6846 11.5233 44.4073C12.0125 44.1264 12.4602 43.7482 12.8663 43.2725L13.4637 44.1131C12.9916 44.6489 12.4608 45.07 11.8714 45.3764C11.2856 45.6744 10.6788 45.8395 10.051 45.8716C9.41484 45.9001 8.79767 45.7835 8.19947 45.5217L7.71343 45.309ZM6.005 47.7539L8.63913 41.7345L9.47412 42.0999L6.83999 48.1193L6.005 47.7539ZM5.73031 44.6491L6.18296 43.6147L7.89034 44.3618L7.43768 45.3962L5.73031 44.6491ZM7.92346 39.7731L8.37611 38.7387L15.0436 41.6564L14.5909 42.6908L7.92346 39.7731ZM11.1046 40.2742L11.9554 38.3301L12.8153 38.7064L11.9645 40.6505L11.1046 40.2742ZM12.4818 48.9697L15.5795 41.8909L19.5052 43.6088L16.4075 50.6876L12.4818 48.9697ZM15.9548 43.2728L13.7461 48.3201L16.0018 49.3073L18.2105 44.2599L15.9548 43.2728Z" fill="#6ECFFF"/>
<path d="M16.4895 27.9468L17.0795 27.252L17.8261 27.8861C18.3653 28.3439 18.769 28.8772 19.0374 29.4859C19.3058 30.0945 19.4391 30.7432 19.4374 31.4318C19.4346 32.1076 19.2901 32.7821 19.004 33.4552L17.9689 33.308C18.2288 32.7077 18.3702 32.1139 18.3931 31.5265C18.4219 30.9323 18.3382 30.3793 18.1421 29.8677C17.9459 29.3561 17.6439 28.9271 17.2361 28.5808L16.4895 27.9468ZM16.6216 27.7912L17.2204 27.0861L17.9566 27.7113C18.323 28.0225 18.7577 28.2251 19.2608 28.3192C19.757 28.4074 20.2797 28.3873 20.829 28.2589C21.3783 28.1305 21.9187 27.8934 22.4503 27.5476L22.7809 28.5244C22.1826 28.9206 21.5607 29.1836 20.915 29.3135C20.2683 29.4306 19.6367 29.4177 19.0202 29.275C18.4097 29.1253 17.8555 28.8391 17.3578 28.4164L16.6216 27.7912ZM14.493 29.8564L18.755 24.8378L19.4601 25.4366L15.1981 30.4552L14.493 29.8564ZM19.2492 23.205L19.9801 22.3444L24.812 26.4479L24.0812 27.3085L19.2492 23.205ZM21.6969 24.4628L23.1939 22.7001L23.899 23.2988L22.402 25.0616L21.6969 24.4628ZM20.1946 32.7887L25.2579 26.8265L27.5287 28.755L23.2051 33.8462L24.6464 35.0702L23.9332 35.9101L21.849 34.1401L26.1638 29.0593L25.2098 28.2492L20.8686 33.3611L20.1946 32.7887ZM23.5599 35.5931L28.8785 29.3302L29.5525 29.9025L24.2339 36.1654L23.5599 35.5931Z" fill="#6ECFFF"/>
<path d="M31.5577 12.6195L32.4166 11.9735L36.9955 18.0619L36.1366 18.7079L31.5577 12.6195ZM31.9765 16.5259L33.8356 15.1277L34.3916 15.867L32.5325 17.2652L31.9765 16.5259ZM29.5848 14.3416L30.4328 13.7038L34.7827 19.4878L33.9347 20.1255L29.5848 14.3416ZM24.9118 19.3539L29.8912 15.609L30.439 16.3375L25.4596 20.0823L24.9118 19.3539ZM28.3281 18.691C28.7412 18.3803 29.1582 18.1802 29.5788 18.0908C30.0013 17.9886 30.3949 17.999 30.7597 18.1218C31.1262 18.232 31.4376 18.4574 31.6938 18.7981C31.9445 19.1315 32.0747 19.4932 32.0843 19.8831C32.1011 20.2676 32.0046 20.6523 31.7947 21.0371C31.5866 21.4092 31.276 21.7506 30.8628 22.0613C30.4569 22.3666 30.0427 22.5703 29.6203 22.6724C29.1923 22.7673 28.796 22.7533 28.4313 22.6304C28.0665 22.5076 27.7588 22.2794 27.508 21.946C27.2518 21.6054 27.118 21.2464 27.1067 20.8692C27.0898 20.4846 27.1891 20.1036 27.4044 19.7261C27.6143 19.3413 27.9222 18.9962 28.3281 18.691ZM28.835 19.365C28.4581 19.6485 28.2182 19.9708 28.1153 20.3318C28.0124 20.6929 28.0782 21.0293 28.3126 21.341C28.5415 21.6454 28.8464 21.8019 29.2273 21.8104C29.6028 21.8118 29.979 21.6707 30.3559 21.3872C30.74 21.0983 30.9799 20.7761 31.0756 20.4204C31.1731 20.0521 31.1073 19.7157 30.8784 19.4113C30.644 19.0996 30.339 18.9431 29.9636 18.9418C29.5954 18.9351 29.2192 19.0761 28.835 19.365ZM26.1571 16.7322L27.0486 16.0617L28.1851 17.5729L27.2936 18.2434L26.1571 16.7322ZM31.5193 22.64L32.226 22.1085L32.4713 22.4346C32.782 22.8478 32.9966 23.3218 33.1152 23.8567C33.2356 24.379 33.2463 24.9213 33.1473 25.4837C33.0483 26.0461 32.825 26.5942 32.4775 27.1279L31.5383 26.7618C31.8479 26.3134 32.055 25.857 32.1596 25.3925C32.266 24.9153 32.2808 24.4673 32.204 24.0484C32.1346 23.624 31.9881 23.2633 31.7646 22.9661L31.5193 22.64ZM31.7259 22.4846L32.3999 21.9777L32.6452 22.3038C32.8796 22.6155 33.1783 22.8844 33.5414 23.1107C33.9063 23.3242 34.3145 23.4597 34.7663 23.5172C35.218 23.5746 35.6931 23.535 36.1918 23.3983L36.3372 24.3613C35.7298 24.5344 35.1513 24.5723 34.6016 24.4751C34.0646 24.3797 33.5709 24.1835 33.1207 23.8867C32.6705 23.5898 32.2873 23.2312 31.9712 22.8108L31.7259 22.4846ZM35.1288 19.9254L35.8029 19.4184L36.0482 19.7446C36.3262 20.1142 36.5453 20.5565 36.7056 21.0714C36.8659 21.5863 36.922 22.1286 36.8737 22.6982C36.8382 23.2696 36.6594 23.8239 36.3372 24.3613L35.4416 23.9625C35.6949 23.4996 35.8476 23.0387 35.8996 22.5798C35.9588 22.1153 35.9365 21.6782 35.8325 21.2685C35.7286 20.8587 35.5758 20.5197 35.3741 20.2515L35.1288 19.9254ZM35.3245 19.7782L36.0203 19.2549L36.2656 19.581C36.5055 19.9 36.8187 20.158 37.2053 20.3552C37.5937 20.5397 38.0264 20.6398 38.5035 20.6555C38.9805 20.6712 39.4711 20.5916 39.9751 20.4168L40.0662 21.4207C39.4624 21.6137 38.8794 21.6834 38.317 21.6298C37.7601 21.5833 37.2448 21.4262 36.771 21.1584C36.2973 20.8906 35.8969 20.5392 35.5698 20.1043L35.3245 19.7782Z" fill="#6ECFFF"/>
<path d="M40.1168 8.83166C40.663 8.58684 41.2195 8.53122 41.7862 8.66481C42.3493 8.79011 42.8783 9.09462 43.3734 9.57834C43.8768 10.0584 44.3065 10.6956 44.6626 11.4901C45.0187 12.2846 45.2084 13.0294 45.2318 13.7245C45.2634 14.416 45.1405 15.0177 44.8631 15.5296C44.5857 16.0415 44.1739 16.4199 43.6277 16.6647C43.0898 16.9058 42.5333 16.9614 41.9583 16.8316C41.3916 16.698 40.8565 16.3912 40.3532 15.9112C39.8581 15.4274 39.4325 14.7883 39.0764 13.9939C38.7203 13.1994 38.5264 12.4564 38.4948 11.765C38.4714 11.0698 38.6003 10.4704 38.8814 9.96678C39.1671 9.45114 39.5789 9.07276 40.1168 8.83166ZM40.5286 9.75027C40.1727 9.90977 39.9139 10.1749 39.7521 10.5455C39.5865 10.908 39.5271 11.352 39.5739 11.8776C39.6253 12.3913 39.7863 12.9502 40.0571 13.5543C40.3279 14.1584 40.6398 14.6547 40.9927 15.0431C41.3503 15.4195 41.7212 15.6707 42.1056 15.7965C42.49 15.9224 42.8601 15.9056 43.216 15.7461C43.5801 15.5829 43.8431 15.3159 44.0049 14.9453C44.1667 14.5746 44.222 14.1324 44.1706 13.6187C44.1239 13.0931 43.9651 12.5282 43.6943 11.9241C43.4235 11.3199 43.1094 10.8297 42.7518 10.4532C42.3988 10.0648 42.032 9.81185 41.6513 9.69426C41.267 9.56839 40.8927 9.58706 40.5286 9.75027ZM44.9535 5.62026L45.9715 5.16401L51.0124 16.4108L49.9945 16.8671L44.9535 5.62026ZM44.1048 11.1438L47.3324 9.69712L47.7052 10.5288L44.4776 11.9755L44.1048 11.1438Z" fill="#6ECFFF"/>
<path d="M54.9478 9.11137L56.0418 8.8937L56.7586 12.4961L55.6645 12.7137L54.9478 9.11137ZM59.404 8.22475L60.5114 8.00443L61.2282 11.6068L60.1208 11.8271L59.404 8.22475ZM52.9403 13.0338L63.8808 10.8571L64.064 11.7777L53.1234 13.9544L52.9403 13.0338ZM56.6239 3.10497C57.4778 2.93508 58.2595 2.91362 58.969 3.04061C59.6785 3.1676 60.2661 3.4252 60.7317 3.8134C61.2062 4.19982 61.5063 4.7088 61.6319 5.34033C61.7558 5.96296 61.6734 6.54803 61.3847 7.09555C61.1032 7.6324 60.659 8.09528 60.0521 8.48419C59.4434 8.8642 58.7121 9.13915 57.8582 9.30904C57.0132 9.47716 56.2324 9.50306 55.5158 9.38673C54.8062 9.25974 54.2187 9.00215 53.7531 8.61395C53.2857 8.21686 52.9901 7.707 52.8662 7.08437C52.7405 6.45284 52.8185 5.86865 53.1 5.3318C53.3816 4.79495 53.8258 4.33207 54.4327 3.94316C55.0485 3.55249 55.7789 3.27309 56.6239 3.10497ZM56.7991 3.98554C56.1587 4.11296 55.608 4.31962 55.147 4.60551C54.6861 4.8914 54.3469 5.23166 54.1296 5.62629C53.9104 6.01203 53.8451 6.42727 53.9336 6.872C54.022 7.31674 54.2422 7.67979 54.5941 7.96116C54.9442 8.23363 55.3869 8.41371 55.9222 8.5014C56.4574 8.58909 57.0453 8.56922 57.6857 8.4418C58.335 8.31261 58.8901 8.10507 59.3511 7.81918C59.812 7.53329 60.1521 7.19748 60.3712 6.81174C60.5886 6.41711 60.6531 5.99743 60.5646 5.55269C60.4761 5.10795 60.2568 4.74935 59.9067 4.47687C59.5548 4.19551 59.1112 4.01098 58.576 3.92329C58.0407 3.83561 57.4484 3.85636 56.7991 3.98554Z" fill="#6ECFFF"/>
</svg>
