<svg width="48" height="72" viewBox="0 0 48 72" fill="none" xmlns="http://www.w3.org/2000/svg">
<path d="M0 12C0 5.37258 5.37258 0 12 0H24V24H12C5.37258 24 0 18.6274 0 12Z" fill="#F24E1E"/>
<path d="M24 0H36C42.6274 0 48 5.37258 48 12C48 18.6274 42.6274 24 36 24H24V0Z" fill="#FF7262"/>
<path d="M0 36C0 29.3726 5.37258 24 12 24H24V48H12C5.37258 48 0 42.6274 0 36Z" fill="#A259FF"/>
<rect x="24" y="24" width="24" height="24" rx="12" fill="#1ABCFE"/>
<path d="M0 60C0 53.3726 5.37258 48 12 48H24V60C24 66.6274 18.6274 72 12 72C5.37258 72 0 66.6274 0 60Z" fill="#0ACF83"/>
</svg>
